<svg xmlns="http://www.w3.org/2000/svg" viewBox="0 0 64 64"><circle fill="none" stroke="#000" stroke-width="2" stroke-miterlimit="10" cx="30" cy="13" r="6"/><path fill="none" stroke="#000" stroke-width="2" stroke-miterlimit="10" d="M46.408 45.699L36 37.838V26.853l7.942-7.624C45.135 18.084 46 16.053 46 14.4V4c0-1.104-.896-2-2-2s-2 .896-2 2v10.4c0 .558-.426 1.556-.828 1.942L35.278 22H24.722l-5.894-5.657C18.426 15.956 18 14.958 18 14.4V4c0-1.104-.896-2-2-2s-2 .896-2 2v10.4c0 1.652.865 3.684 2.058 4.828L24 26.853V60c0 1.104.896 2 2 2s2-.896 2-2V42h6.874l6.653 5.025-6.068 1.549c-1.063.299-1.684 1.404-1.385 2.467.248.883 1.051 1.459 1.925 1.459.179 0 .361-.023.542-.074l8.988-2.371c.998-.247 1.709-.934 1.905-1.848.201-.933-.182-1.87-1.026-2.508z"/></svg>
