<svg xmlns="http://www.w3.org/2000/svg" viewBox="0 0 64 64"><path fill="none" stroke="#000" stroke-width="2" stroke-miterlimit="10" d="M52 40v20c0 1.1-.9 2-2 2H14c-1.1 0-2-.9-2-2V12c0-1.1.9-2 2-2h9M41 10h9c1.1 0 2 .9 2 2v15"/><path fill="none" stroke="#000" stroke-width="2" stroke-miterlimit="10" d="M37 7c0-2.762-2.238-5-5-5s-5 2.238-5 5h-4v7h18V7h-4z"/><circle fill="none" stroke="#000" stroke-width="2" stroke-miterlimit="10" cx="32" cy="7" r="1"/><path fill="none" stroke="#000" stroke-width="2" stroke-miterlimit="10" d="M59 28l-25 8-4 5 6 1 25-8zM27 20.5l-6 6-3-3M27 50.5l-6 6-3-3M18.5 36l7 7M25.5 36l-7 7M31 25h15M53 30l2 6"/></svg>