<svg xmlns="http://www.w3.org/2000/svg" viewBox="0 0 20 20"><g fill="none" fill-rule="evenodd"><path class="contact__icon-stroke" stroke-width="2" d="M7.128 2h5.744c1.783 0 2.43.186 3.082.534.652.349 1.163.86 1.512 1.512.348.652.534 1.299.534 3.082v5.744c0 1.783-.186 2.43-.534 3.082a3.635 3.635 0 01-1.512 1.512c-.652.348-1.299.534-3.082.534H7.128c-1.783 0-2.43-.186-3.082-.534a3.635 3.635 0 01-1.512-1.512C2.186 15.302 2 14.655 2 12.872V7.128c0-1.783.186-2.43.534-3.082a3.635 3.635 0 011.512-1.512C4.698 2.186 5.345 2 7.128 2z"/><circle cx="10" cy="10" r="3.5" class="contact__icon-stroke" stroke-width="2"/><circle cx="14.75" cy="5.25" r="1.25" class="contact__icon-fill"/></g></svg>
