<svg xmlns="http://www.w3.org/2000/svg" viewBox="0 0 20 20"><g fill="none" fill-rule="evenodd" class="contact__icon-stroke" stroke-width="2"><path d="M14.912 17.543a9 9 0 10-13.63-5.301M7.5 20v-1.875c0-.621.504-1.125 1.125-1.125h2.75c.621 0 1.125.504 1.125 1.125V20"/><path d="M14.201 6.25c.288.983.368 1.813.24 2.49.354.584.559 1.269.559 2.038 0 2.628-2.242 3.722-5 3.722s-5-1.094-5-3.722c0-.77.205-1.454.56-2.04-.129-.675-.05-1.505.239-2.488.97.1 1.686.304 2.145.61A5.961 5.961 0 0110 6.5c.717 0 1.418.125 2.057.36.458-.306 1.173-.51 2.144-.61zM7.5 17.965c-2.172.209-3.507-.549-3.921-1.607C3.165 15.3 2.438 14.754 1.5 14.5"/></g></svg>
