<svg xmlns="http://www.w3.org/2000/svg" viewBox="0 0 901 332" class="diagram"><g fill="none" fill-rule="evenodd"><path class="diagram__connector" stroke-width="6" d="M576 52v58"/><path class="diagram__secondary" d="M160 0c11.046 0 20 8.954 20 20v280c0 11.046-8.954 20-20 20H20c-11.046 0-20-8.954-20-20V20C0 8.954 8.954 0 20 0h140zM90 278c-8.837 0-16 7.163-16 16s7.163 16 16 16 16-7.163 16-16-7.163-16-16-16zm78-232H12v220h156V46zm-65-24H77a1 1 0 00-1 1v2a1 1 0 001 1h26a1 1 0 001-1v-2a1 1 0 00-1-1z"/><path class="diagram__primary-stroke" stroke-width="4" d="M71.639 112h36.722c8.915 0 12.148.928 15.407 2.671a18.173 18.173 0 017.56 7.56c1.744 3.26 2.672 6.493 2.672 15.408v36.722c0 8.915-.928 12.148-2.671 15.407a18.173 18.173 0 01-7.56 7.56c-3.26 1.744-6.493 2.672-15.408 2.672H71.64c-8.915 0-12.148-.928-15.407-2.671a18.173 18.173 0 01-7.56-7.56C46.927 186.508 46 183.275 46 174.36V137.64c0-8.915.928-12.148 2.671-15.407a18.173 18.173 0 017.56-7.56c3.26-1.744 6.493-2.672 15.408-2.672z"/><path class="diagram__secondary" d="M672 80c6.627 0 12 5.373 12 12v20h8v76h-8v10h8v50h-8v10h8v50h-8c0 6.627-5.373 12-12 12H525.999l.001 6c0 3.26-6.067 5.913-13.627 5.998L512 332c-7.607 0-13.797-2.6-13.995-5.84L498 326l-.001-6H470v12h-24v-12h-28.001l.001 12h-24l-.001-12H374v12h-32v-12h-26c-6.627 0-12-5.373-12-12V92c0-6.627 5.373-12 12-12h356zM326 290c-5.523 0-10 4.477-10 10s4.477 10 10 10 10-4.477 10-10-4.477-10-10-10zm294 0c-5.523 0-10 4.477-10 10s4.477 10 10 10 10-4.477 10-10-4.477-10-10-10zM400 106a4 4 0 100 8 4 4 0 000-8zm192 0a4 4 0 100 8 4 4 0 000-8zm-240 0a4 4 0 100 8 4 4 0 000-8zm128 0a4 4 0 100 8 4 4 0 000-8zm-64 0a4 4 0 100 8 4 4 0 000-8zm128 0a4 4 0 100 8 4 4 0 000-8zm-160 0a4 4 0 100 8 4 4 0 000-8zm128 0a4 4 0 100 8 4 4 0 000-8zm-64 0a4 4 0 100 8 4 4 0 000-8zm128 0a4 4 0 100 8 4 4 0 000-8zm-208 0a4 4 0 100 8 4 4 0 000-8zm128 0a4 4 0 100 8 4 4 0 000-8zm-64 0a4 4 0 100 8 4 4 0 000-8zm128 0a4 4 0 100 8 4 4 0 000-8zm-96 0a4 4 0 100 8 4 4 0 000-8zm64 0a4 4 0 100 8 4 4 0 000-8zM326 92c-5.523 0-10 4.477-10 10s4.477 10 10 10 10-4.477 10-10-4.477-10-10-10zm294 0c-5.523 0-10 4.477-10 10s4.477 10 10 10 10-4.477 10-10-4.477-10-10-10zm-268-2a4 4 0 100 8 4 4 0 000-8zm192 0a4 4 0 100 8 4 4 0 000-8zm-160 0a4 4 0 100 8 4 4 0 000-8zm128 0a4 4 0 100 8 4 4 0 000-8zm-64 0a4 4 0 100 8 4 4 0 000-8zm128 0a4 4 0 100 8 4 4 0 000-8zm-208 0a4 4 0 100 8 4 4 0 000-8zm128 0a4 4 0 100 8 4 4 0 000-8zm-64 0a4 4 0 100 8 4 4 0 000-8zm128 0a4 4 0 100 8 4 4 0 000-8zm-160 0a4 4 0 100 8 4 4 0 000-8zm128 0a4 4 0 100 8 4 4 0 000-8zm-64 0a4 4 0 100 8 4 4 0 000-8zm128 0a4 4 0 100 8 4 4 0 000-8zm-112 0a4 4 0 100 8 4 4 0 000-8zm-64 0a4 4 0 100 8 4 4 0 000-8zM888 0v7.999L890 8a2 2 0 012 2v16a2 2 0 01-2 2h-2v38.771a51.78 51.78 0 0111.993 32.37L900 100c0 28.719-23.281 52-52 52s-52-23.281-52-52a51.789 51.789 0 0112-33.23V0h80zm-40 114a6 6 0 00-5.996 5.775L842 120v8h12v-8l-.004-.225A6 6 0 00848 114zm-12-36h-8v26h8V78zm32 2h-8v22h8V80z"/><g class="diagram__primary-stroke" stroke-width="4"><path d="M542 172h68v68h-68z"/><path d="M550 180l8 8-8 8M564 194h12"/></g><path class="diagram__secondary" d="M548 0h76v52h-76z"/><g class="diagram__primary-stroke" stroke-width="4" transform="translate(347 164)"><ellipse cx="37" cy="12" rx="36" ry="12"/><path d="M1 72c0 6.627 16.118 12 36 12s36-5.373 36-12M1 52c0 6.627 16.118 12 36 12s36-5.373 36-12M1 32c0 6.627 16.118 12 36 12s36-5.373 36-12M1 12v60M73 12v60"/></g><path class="diagram__connector" stroke-width="6" d="M182.9 152.552c1.69 5.043 2.177 10.688 1.16 16.452-1.015 5.764-3.405 10.901-6.717 15.062m-18.078-35.681c1.689 5.042 2.177 10.687 1.16 16.451-1.016 5.764-3.405 10.902-6.717 15.062m123.734-10.676c1.689 5.043 2.177 10.688 1.16 16.452-1.016 5.764-3.405 10.901-6.717 15.062m-41.714-39.849c1.69 5.043 2.177 10.688 1.16 16.452-1.016 5.764-3.405 10.901-6.717 15.062m100.098-14.844c1.69 5.043 2.178 10.688 1.161 16.452-1.016 5.764-3.405 10.902-6.717 15.062m-112.62-52.351c1.689 5.042 2.177 10.687 1.16 16.451-1.016 5.764-3.405 10.902-6.717 15.062m100.098-14.843c1.69 5.042 2.177 10.688 1.16 16.451-1.015 5.764-3.405 10.902-6.717 15.063m-41.714-39.85c1.69 5.043 2.177 10.688 1.161 16.452-1.016 5.764-3.405 10.902-6.717 15.063M654.001 10c2.54 4.673 4 10.147 4 16s-1.46 11.327-4 16m-24-32c2.54 4.673 4 10.147 4 16s-1.46 11.327-4 16m-24-32c2.54 4.673 4 10.147 4 16s-1.46 11.327-4 16m144-32c2.54 4.673 4 10.147 4 16s-1.46 11.327-4 16m-48-32c2.54 4.673 4 10.147 4 16s-1.46 11.327-4 16m96-32c2.54 4.673 4 10.147 4 16s-1.46 11.327-4 16m-120-32c2.54 4.673 4 10.147 4 16s-1.46 11.327-4 16m96-32c2.54 4.673 4 10.147 4 16s-1.46 11.327-4 16m-48-32c2.54 4.673 4 10.147 4 16s-1.46 11.327-4 16m96-32c2.54 4.673 4 10.147 4 16s-1.46 11.327-4 16M426 206h110M576 110v56M576 48v4"/><circle cx="576" cy="26" r="16" class="diagram__primary-stroke" stroke-width="4"/><circle cx="848" cy="26" r="6" class="diagram__primary-stroke" stroke-width="4"/><circle cx="848" cy="256" r="10" class="diagram__primary-stroke" stroke-width="4"/><path class="diagram__connector" stroke-width="6" d="M848 156v12c0 5.523-4.477 10-10 10h-70c-5.523 0-10 4.477-10 10v120c0 5.523 4.477 10 10 10h60"/><path class="diagram__primary-stroke" stroke-width="4" d="M91.765 130H72.56c-1.112 0-2.147.892-2.3 1.981l-4.497 32.037c-.153 1.09.632 1.982 1.743 1.982h44.475c1.112 0 1.896-.892 1.744-1.981l-4.498-32.037c-.153-1.09-1.188-1.982-2.3-1.982H91.765z"/><path class="diagram__primary-fill" d="M87.857 159L97 145.556h-7L91.143 137 82 150.444h7z"/><path class="diagram__primary-stroke" stroke-width="4" d="M86 169v18M94 169v18M100 186H80"/><path class="diagram__secondary" d="M880.935 210c2.131 0 4.115 1.734 4.407 3.854l8.622 62.294c.292 2.118-1.211 3.852-3.342 3.852h-85.244c-2.13 0-3.634-1.734-3.342-3.854l8.622-62.294c.292-2.118 2.276-3.852 4.407-3.852zM848 240c-8.837 0-16 7.163-16 16s7.163 16 16 16 16-7.163 16-16-7.163-16-16-16zm6 42v34h8a2 2 0 010 4h-28a2 2 0 010-4h8v-34h12z"/><path class="diagram__primary-stroke" stroke-width="4" d="M575.78 24.75a2.588 2.588 0 00-.692.73 2.775 2.775 0 00-.386 1.007c-.064.368-.057.763.03 1.154.088.39.257.778.503 1.128.246.35.571.665.958.91.387.246.838.424 1.32.508a3.891 3.891 0 001.515-.04 4.169 4.169 0 001.481-.66 4.47 4.47 0 001.195-1.262c.322-.51.555-1.102.666-1.738a5.135 5.135 0 00-.053-1.992 5.495 5.495 0 00-.867-1.95 5.874 5.874 0 00-1.655-1.573 6.28 6.28 0 00-2.281-.876 6.72 6.72 0 00-2.615.07 7.201 7.201 0 00-2.559 1.14 7.72 7.72 0 00-2.063 2.18 8.28 8.28 0 00-1.15 3.001 8.868 8.868 0 00.09 3.442 9.491 9.491 0 001.498 3.367 10.144 10.144 0 002.86 2.716 10.846 10.846 0 003.939 1.513c1.441.252 2.988.224 4.516-.119a12.435 12.435 0 004.419-1.971 13.336 13.336 0 003.565-3.763A14.299 14.299 0 00592 26.487"/><path class="diagram__secondary" d="M558 48h4v26h-4zM590 48h4v26h-4z"/></g></svg>
